solid OpenSCAD_Model
  facet normal -1 0 0
    outer loop
      vertex 0 0 0
      vertex 0 250 54
      vertex 0 250 0
    endloop
  endfacet
  facet normal -1 -0 0
    outer loop
      vertex 0 250 54
      vertex 0 0 0
      vertex 0 0 54
    endloop
  endfacet
  facet normal 0 0 1
    outer loop
      vertex 82 250 54
      vertex 81 249 54
      vertex 82 0 54
    endloop
  endfacet
  facet normal 0 0 1
    outer loop
      vertex 82 250 54
      vertex 1 249 54
      vertex 81 249 54
    endloop
  endfacet
  facet normal 0 0 1
    outer loop
      vertex 1 249 54
      vertex 0 250 54
      vertex 1 1 54
    endloop
  endfacet
  facet normal -0 0 1
    outer loop
      vertex 0 250 54
      vertex 1 249 54
      vertex 82 250 54
    endloop
  endfacet
  facet normal -0 0 1
    outer loop
      vertex 81 1 54
      vertex 82 0 54
      vertex 81 249 54
    endloop
  endfacet
  facet normal -0 0 1
    outer loop
      vertex 1 1 54
      vertex 82 0 54
      vertex 81 1 54
    endloop
  endfacet
  facet normal 0 0 1
    outer loop
      vertex 1 1 54
      vertex 0 0 54
      vertex 82 0 54
    endloop
  endfacet
  facet normal 0 0 1
    outer loop
      vertex 0 0 54
      vertex 1 1 54
      vertex 0 250 54
    endloop
  endfacet
  facet normal 1 -0 0
    outer loop
      vertex 82 0 54
      vertex 82 250 0
      vertex 82 250 54
    endloop
  endfacet
  facet normal 1 0 0
    outer loop
      vertex 82 250 0
      vertex 82 0 54
      vertex 82 0 0
    endloop
  endfacet
  facet normal 0 0 -1
    outer loop
      vertex 0 0 0
      vertex 82 250 0
      vertex 82 0 0
    endloop
  endfacet
  facet normal -0 0 -1
    outer loop
      vertex 82 250 0
      vertex 0 0 0
      vertex 0 250 0
    endloop
  endfacet
  facet normal 0 -1 0
    outer loop
      vertex 0 0 0
      vertex 82 0 54
      vertex 0 0 54
    endloop
  endfacet
  facet normal 0 -1 -0
    outer loop
      vertex 82 0 54
      vertex 0 0 0
      vertex 82 0 0
    endloop
  endfacet
  facet normal 0 1 -0
    outer loop
      vertex 82 250 0
      vertex 0 250 54
      vertex 82 250 54
    endloop
  endfacet
  facet normal 0 1 0
    outer loop
      vertex 0 250 54
      vertex 82 250 0
      vertex 0 250 0
    endloop
  endfacet
  facet normal -1 0 0
    outer loop
      vertex 1 1 54
      vertex 1 249 59
      vertex 1 249 54
    endloop
  endfacet
  facet normal -1 -0 0
    outer loop
      vertex 1 249 59
      vertex 1 1 54
      vertex 1 1 59
    endloop
  endfacet
  facet normal 0 0 1
    outer loop
      vertex 81 249 59
      vertex 80 248 59
      vertex 81 1 59
    endloop
  endfacet
  facet normal 0 0 1
    outer loop
      vertex 81 249 59
      vertex 2 248 59
      vertex 80 248 59
    endloop
  endfacet
  facet normal 0 0 1
    outer loop
      vertex 2 248 59
      vertex 1 249 59
      vertex 2 2 59
    endloop
  endfacet
  facet normal -0 0 1
    outer loop
      vertex 1 249 59
      vertex 2 248 59
      vertex 81 249 59
    endloop
  endfacet
  facet normal -0 0 1
    outer loop
      vertex 80 2 59
      vertex 81 1 59
      vertex 80 248 59
    endloop
  endfacet
  facet normal -0 0 1
    outer loop
      vertex 2 2 59
      vertex 81 1 59
      vertex 80 2 59
    endloop
  endfacet
  facet normal 0 0 1
    outer loop
      vertex 2 2 59
      vertex 1 1 59
      vertex 81 1 59
    endloop
  endfacet
  facet normal 0 0 1
    outer loop
      vertex 1 1 59
      vertex 2 2 59
      vertex 1 249 59
    endloop
  endfacet
  facet normal 1 -0 0
    outer loop
      vertex 81 1 59
      vertex 81 249 54
      vertex 81 249 59
    endloop
  endfacet
  facet normal 1 0 0
    outer loop
      vertex 81 249 54
      vertex 81 1 59
      vertex 81 1 54
    endloop
  endfacet
  facet normal 0 -1 0
    outer loop
      vertex 1 1 54
      vertex 81 1 59
      vertex 1 1 59
    endloop
  endfacet
  facet normal 0 -1 -0
    outer loop
      vertex 81 1 59
      vertex 1 1 54
      vertex 81 1 54
    endloop
  endfacet
  facet normal 0 1 -0
    outer loop
      vertex 81 249 54
      vertex 1 249 59
      vertex 81 249 59
    endloop
  endfacet
  facet normal 0 1 0
    outer loop
      vertex 1 249 59
      vertex 81 249 54
      vertex 1 249 54
    endloop
  endfacet
  facet normal 1 0 0
    outer loop
      vertex 2 248 59
      vertex 2 208.667 47
      vertex 2 248 2
    endloop
  endfacet
  facet normal 1 0 0
    outer loop
      vertex 2 248 59
      vertex 2 206.667 47
      vertex 2 208.667 47
    endloop
  endfacet
  facet normal 1 0 0
    outer loop
      vertex 2 206.667 47
      vertex 2 167.333 47
      vertex 2 206.667 2
    endloop
  endfacet
  facet normal 1 0 0
    outer loop
      vertex 2 248 59
      vertex 2 167.333 47
      vertex 2 206.667 47
    endloop
  endfacet
  facet normal 1 0 0
    outer loop
      vertex 2 248 59
      vertex 2 165.333 47
      vertex 2 167.333 47
    endloop
  endfacet
  facet normal 1 0 0
    outer loop
      vertex 2 165.333 47
      vertex 2 126 47
      vertex 2 165.333 2
    endloop
  endfacet
  facet normal 1 0 0
    outer loop
      vertex 2 248 59
      vertex 2 126 47
      vertex 2 165.333 47
    endloop
  endfacet
  facet normal 1 0 0
    outer loop
      vertex 2 248 59
      vertex 2 124 47
      vertex 2 126 47
    endloop
  endfacet
  facet normal 1 0 0
    outer loop
      vertex 2 124 47
      vertex 2 84.6667 47
      vertex 2 124 2
    endloop
  endfacet
  facet normal 1 -0 0
    outer loop
      vertex 2 2 59
      vertex 2 124 47
      vertex 2 248 59
    endloop
  endfacet
  facet normal 1 0 0
    outer loop
      vertex 2 124 47
      vertex 2 2 59
      vertex 2 84.6667 47
    endloop
  endfacet
  facet normal 1 0 0
    outer loop
      vertex 2 82.6667 47
      vertex 2 43.3333 47
      vertex 2 82.6667 2
    endloop
  endfacet
  facet normal 1 0 0
    outer loop
      vertex 2 84.6667 47
      vertex 2 2 59
      vertex 2 82.6667 47
    endloop
  endfacet
  facet normal 1 0 0
    outer loop
      vertex 2 82.6667 47
      vertex 2 2 59
      vertex 2 43.3333 47
    endloop
  endfacet
  facet normal 1 0 0
    outer loop
      vertex 2 43.3333 47
      vertex 2 2 59
      vertex 2 41.3333 47
    endloop
  endfacet
  facet normal 1 0 0
    outer loop
      vertex 2 2 2
      vertex 2 41.3333 47
      vertex 2 2 59
    endloop
  endfacet
  facet normal 1 0 0
    outer loop
      vertex 2 41.3333 47
      vertex 2 2 2
      vertex 2 41.3333 2
    endloop
  endfacet
  facet normal 1 0 0
    outer loop
      vertex 2 248 2
      vertex 2 208.667 47
      vertex 2 208.667 2
    endloop
  endfacet
  facet normal 1 0 0
    outer loop
      vertex 2 206.667 2
      vertex 2 167.333 47
      vertex 2 167.333 2
    endloop
  endfacet
  facet normal 1 0 0
    outer loop
      vertex 2 165.333 2
      vertex 2 126 47
      vertex 2 126 2
    endloop
  endfacet
  facet normal 1 0 0
    outer loop
      vertex 2 124 2
      vertex 2 84.6667 47
      vertex 2 84.6667 2
    endloop
  endfacet
  facet normal 1 0 0
    outer loop
      vertex 2 82.6667 2
      vertex 2 43.3333 47
      vertex 2 43.3333 2
    endloop
  endfacet
  facet normal -1 0 0
    outer loop
      vertex 80 41.3333 2
      vertex 80 2 2
      vertex 80 41.3333 47
    endloop
  endfacet
  facet normal -1 0 0
    outer loop
      vertex 80 82.6667 2
      vertex 80 43.3333 2
      vertex 80 82.6667 47
    endloop
  endfacet
  facet normal -1 0 0
    outer loop
      vertex 80 124 2
      vertex 80 84.6667 2
      vertex 80 124 47
    endloop
  endfacet
  facet normal -1 0 0
    outer loop
      vertex 80 165.333 2
      vertex 80 126 2
      vertex 80 165.333 47
    endloop
  endfacet
  facet normal -1 0 0
    outer loop
      vertex 80 206.667 2
      vertex 80 167.333 2
      vertex 80 206.667 47
    endloop
  endfacet
  facet normal -1 0 0
    outer loop
      vertex 80 208.667 47
      vertex 80 248 2
      vertex 80 208.667 2
    endloop
  endfacet
  facet normal -1 0 0
    outer loop
      vertex 80 248 2
      vertex 80 208.667 47
      vertex 80 248 59
    endloop
  endfacet
  facet normal -1 0 0
    outer loop
      vertex 80 206.667 47
      vertex 80 248 59
      vertex 80 208.667 47
    endloop
  endfacet
  facet normal -1 0 0
    outer loop
      vertex 80 167.333 47
      vertex 80 206.667 47
      vertex 80 167.333 2
    endloop
  endfacet
  facet normal -1 0 0
    outer loop
      vertex 80 167.333 47
      vertex 80 248 59
      vertex 80 206.667 47
    endloop
  endfacet
  facet normal -1 0 0
    outer loop
      vertex 80 165.333 47
      vertex 80 248 59
      vertex 80 167.333 47
    endloop
  endfacet
  facet normal -1 0 0
    outer loop
      vertex 80 126 47
      vertex 80 165.333 47
      vertex 80 126 2
    endloop
  endfacet
  facet normal -1 0 0
    outer loop
      vertex 80 126 47
      vertex 80 248 59
      vertex 80 165.333 47
    endloop
  endfacet
  facet normal -1 0 0
    outer loop
      vertex 80 124 47
      vertex 80 248 59
      vertex 80 126 47
    endloop
  endfacet
  facet normal -1 0 0
    outer loop
      vertex 80 84.6667 47
      vertex 80 124 47
      vertex 80 84.6667 2
    endloop
  endfacet
  facet normal -1 0 0
    outer loop
      vertex 80 2 59
      vertex 80 124 47
      vertex 80 84.6667 47
    endloop
  endfacet
  facet normal -1 0 0
    outer loop
      vertex 80 2 59
      vertex 80 84.6667 47
      vertex 80 82.6667 47
    endloop
  endfacet
  facet normal -1 0 0
    outer loop
      vertex 80 43.3333 47
      vertex 80 82.6667 47
      vertex 80 43.3333 2
    endloop
  endfacet
  facet normal -1 0 0
    outer loop
      vertex 80 2 59
      vertex 80 82.6667 47
      vertex 80 43.3333 47
    endloop
  endfacet
  facet normal -1 0 0
    outer loop
      vertex 80 2 59
      vertex 80 43.3333 47
      vertex 80 41.3333 47
    endloop
  endfacet
  facet normal -1 0 0
    outer loop
      vertex 80 124 47
      vertex 80 2 59
      vertex 80 248 59
    endloop
  endfacet
  facet normal -1 0 0
    outer loop
      vertex 80 2 59
      vertex 80 41.3333 47
      vertex 80 2 2
    endloop
  endfacet
  facet normal -0 0 1
    outer loop
      vertex 2 41.3333 2
      vertex 80 2 2
      vertex 80 41.3333 2
    endloop
  endfacet
  facet normal 0 0 1
    outer loop
      vertex 80 2 2
      vertex 2 41.3333 2
      vertex 2 2 2
    endloop
  endfacet
  facet normal -0 0 1
    outer loop
      vertex 2 248 2
      vertex 80 208.667 2
      vertex 80 248 2
    endloop
  endfacet
  facet normal 0 0 1
    outer loop
      vertex 80 208.667 2
      vertex 2 248 2
      vertex 2 208.667 2
    endloop
  endfacet
  facet normal -0 0 1
    outer loop
      vertex 2 82.6667 2
      vertex 80 43.3333 2
      vertex 80 82.6667 2
    endloop
  endfacet
  facet normal 0 0 1
    outer loop
      vertex 80 43.3333 2
      vertex 2 82.6667 2
      vertex 2 43.3333 2
    endloop
  endfacet
  facet normal -0 0 1
    outer loop
      vertex 2 124 2
      vertex 80 84.6667 2
      vertex 80 124 2
    endloop
  endfacet
  facet normal 0 0 1
    outer loop
      vertex 80 84.6667 2
      vertex 2 124 2
      vertex 2 84.6667 2
    endloop
  endfacet
  facet normal -0 0 1
    outer loop
      vertex 2 165.333 2
      vertex 80 126 2
      vertex 80 165.333 2
    endloop
  endfacet
  facet normal 0 0 1
    outer loop
      vertex 80 126 2
      vertex 2 165.333 2
      vertex 2 126 2
    endloop
  endfacet
  facet normal -0 0 1
    outer loop
      vertex 2 206.667 2
      vertex 80 167.333 2
      vertex 80 206.667 2
    endloop
  endfacet
  facet normal 0 0 1
    outer loop
      vertex 80 167.333 2
      vertex 2 206.667 2
      vertex 2 167.333 2
    endloop
  endfacet
  facet normal 0 1 -0
    outer loop
      vertex 80 2 2
      vertex 2 2 59
      vertex 80 2 59
    endloop
  endfacet
  facet normal 0 1 0
    outer loop
      vertex 2 2 59
      vertex 80 2 2
      vertex 2 2 2
    endloop
  endfacet
  facet normal 0 -1 0
    outer loop
      vertex 2 248 2
      vertex 80 248 59
      vertex 2 248 59
    endloop
  endfacet
  facet normal 0 -1 -0
    outer loop
      vertex 80 248 59
      vertex 2 248 2
      vertex 80 248 2
    endloop
  endfacet
  facet normal -0 0 1
    outer loop
      vertex 2 43.3333 47
      vertex 80 41.3333 47
      vertex 80 43.3333 47
    endloop
  endfacet
  facet normal 0 0 1
    outer loop
      vertex 80 41.3333 47
      vertex 2 43.3333 47
      vertex 2 41.3333 47
    endloop
  endfacet
  facet normal 0 1 -0
    outer loop
      vertex 80 43.3333 2
      vertex 2 43.3333 47
      vertex 80 43.3333 47
    endloop
  endfacet
  facet normal 0 1 0
    outer loop
      vertex 2 43.3333 47
      vertex 80 43.3333 2
      vertex 2 43.3333 2
    endloop
  endfacet
  facet normal 0 -1 0
    outer loop
      vertex 2 41.3333 2
      vertex 80 41.3333 47
      vertex 2 41.3333 47
    endloop
  endfacet
  facet normal 0 -1 -0
    outer loop
      vertex 80 41.3333 47
      vertex 2 41.3333 2
      vertex 80 41.3333 2
    endloop
  endfacet
  facet normal -0 0 1
    outer loop
      vertex 2 84.6667 47
      vertex 80 82.6667 47
      vertex 80 84.6667 47
    endloop
  endfacet
  facet normal 0 0 1
    outer loop
      vertex 80 82.6667 47
      vertex 2 84.6667 47
      vertex 2 82.6667 47
    endloop
  endfacet
  facet normal 0 1 -0
    outer loop
      vertex 80 84.6667 2
      vertex 2 84.6667 47
      vertex 80 84.6667 47
    endloop
  endfacet
  facet normal 0 1 0
    outer loop
      vertex 2 84.6667 47
      vertex 80 84.6667 2
      vertex 2 84.6667 2
    endloop
  endfacet
  facet normal 0 -1 0
    outer loop
      vertex 2 82.6667 2
      vertex 80 82.6667 47
      vertex 2 82.6667 47
    endloop
  endfacet
  facet normal 0 -1 -0
    outer loop
      vertex 80 82.6667 47
      vertex 2 82.6667 2
      vertex 80 82.6667 2
    endloop
  endfacet
  facet normal -0 0 1
    outer loop
      vertex 2 126 47
      vertex 80 124 47
      vertex 80 126 47
    endloop
  endfacet
  facet normal 0 0 1
    outer loop
      vertex 80 124 47
      vertex 2 126 47
      vertex 2 124 47
    endloop
  endfacet
  facet normal 0 -1 0
    outer loop
      vertex 2 124 2
      vertex 80 124 47
      vertex 2 124 47
    endloop
  endfacet
  facet normal 0 -1 -0
    outer loop
      vertex 80 124 47
      vertex 2 124 2
      vertex 80 124 2
    endloop
  endfacet
  facet normal 0 1 -0
    outer loop
      vertex 80 126 2
      vertex 2 126 47
      vertex 80 126 47
    endloop
  endfacet
  facet normal 0 1 0
    outer loop
      vertex 2 126 47
      vertex 80 126 2
      vertex 2 126 2
    endloop
  endfacet
  facet normal -0 0 1
    outer loop
      vertex 2 167.333 47
      vertex 80 165.333 47
      vertex 80 167.333 47
    endloop
  endfacet
  facet normal 0 0 1
    outer loop
      vertex 80 165.333 47
      vertex 2 167.333 47
      vertex 2 165.333 47
    endloop
  endfacet
  facet normal 0 1 -0
    outer loop
      vertex 80 167.333 2
      vertex 2 167.333 47
      vertex 80 167.333 47
    endloop
  endfacet
  facet normal 0 1 0
    outer loop
      vertex 2 167.333 47
      vertex 80 167.333 2
      vertex 2 167.333 2
    endloop
  endfacet
  facet normal 0 -1 0
    outer loop
      vertex 2 165.333 2
      vertex 80 165.333 47
      vertex 2 165.333 47
    endloop
  endfacet
  facet normal 0 -1 -0
    outer loop
      vertex 80 165.333 47
      vertex 2 165.333 2
      vertex 80 165.333 2
    endloop
  endfacet
  facet normal -0 0 1
    outer loop
      vertex 2 208.667 47
      vertex 80 206.667 47
      vertex 80 208.667 47
    endloop
  endfacet
  facet normal 0 0 1
    outer loop
      vertex 80 206.667 47
      vertex 2 208.667 47
      vertex 2 206.667 47
    endloop
  endfacet
  facet normal 0 -1 0
    outer loop
      vertex 2 206.667 2
      vertex 80 206.667 47
      vertex 2 206.667 47
    endloop
  endfacet
  facet normal 0 -1 -0
    outer loop
      vertex 80 206.667 47
      vertex 2 206.667 2
      vertex 80 206.667 2
    endloop
  endfacet
  facet normal 0 1 -0
    outer loop
      vertex 80 208.667 2
      vertex 2 208.667 47
      vertex 80 208.667 47
    endloop
  endfacet
  facet normal 0 1 0
    outer loop
      vertex 2 208.667 47
      vertex 80 208.667 2
      vertex 2 208.667 2
    endloop
  endfacet
endsolid OpenSCAD_Model
